<?xml version="1.0" encoding="UTF-8" standalone="no"?>
<!DOCTYPE svg PUBLIC "-//W3C//DTD SVG 1.1//EN" "http://www.w3.org/Graphics/SVG/1.1/DTD/svg11.dtd">
<svg width="100%" height="100%" viewBox="0 0 42 42" version="1.1" xmlns="http://www.w3.org/2000/svg" xmlns:xlink="http://www.w3.org/1999/xlink" xml:space="preserve" xmlns:serif="http://www.serif.com/" style="fill-rule:evenodd;clip-rule:evenodd;stroke-linejoin:round;stroke-miterlimit:2;">
    <g transform="matrix(1,0,0,1,-540,0)">
        <g id="Shopping" transform="matrix(1,0,0,0.98178,-0.974947,0)">
            <rect x="540.975" y="0" width="42" height="42.779" style="fill:none;"/>
            <g transform="matrix(0.998593,0,0,1.01712,469.763,-47.5501)">
                <circle cx="92.342" cy="67.779" r="21.03" style="fill:rgb(212,69,61);"/>
            </g>
            <g transform="matrix(0.0327723,0.0138266,-0.0135747,0.0333805,559.09,3.51516)">
                <path d="M176,208C181,48 339,-11 375,208L176,208ZM442,208C409,-63 142,-76 106,208L31,208L0,760L548,761L516,208L442,208Z" style="fill:white;"/>
            </g>
        </g>
    </g>
</svg>
