<?xml version="1.0" encoding="UTF-8" standalone="no"?>
<!DOCTYPE svg PUBLIC "-//W3C//DTD SVG 1.1//EN" "http://www.w3.org/Graphics/SVG/1.1/DTD/svg11.dtd">
<svg width="100%" height="100%" viewBox="0 0 42 42" version="1.1" xmlns="http://www.w3.org/2000/svg" xmlns:xlink="http://www.w3.org/1999/xlink" xml:space="preserve" xmlns:serif="http://www.serif.com/" style="fill-rule:evenodd;clip-rule:evenodd;stroke-linejoin:round;stroke-miterlimit:2;">
    <g id="Restaurant" transform="matrix(1,0,0,1,-105.708,-87.7794)">
        <rect x="105.708" y="87.779" width="42" height="42" style="fill:none;"/>
        <g transform="matrix(0.998593,0,0,0.998593,34.4959,41.0957)">
            <circle cx="92.342" cy="67.779" r="21.03" style="fill:rgb(38,147,179);"/>
        </g>
        <g transform="matrix(0.264719,-0.10965,0.10965,0.264719,107.902,101.632)">
            <path d="M16.23,40.74L17.4,4C17.48,2.329 18.877,0.998 20.55,1C22.223,0.998 23.62,2.329 23.7,4L24.53,28C24.547,29.291 25.512,30.388 26.79,30.57C26.88,30.58 26.971,30.585 27.062,30.585C28.414,30.585 29.539,29.501 29.59,28.15L30.41,4.15C30.434,2.664 31.48,1.377 32.93,1.05C33.347,0.98 33.773,0.98 34.19,1.05C35.64,1.377 36.686,2.664 36.71,4.15L37.53,28.15C37.581,29.501 38.706,30.585 40.058,30.585C40.149,30.585 40.24,30.58 40.33,30.57C41.608,30.388 42.573,29.291 42.59,28L43.41,4C43.49,2.329 44.887,0.998 46.56,1C48.233,0.998 49.63,2.329 49.71,4L50.88,40.7C51.003,44.248 49.189,47.596 46.15,49.43L40.34,53L40.34,95.54C40.34,97.438 38.778,99 36.88,99L30.15,99C28.252,99 26.69,97.438 26.69,95.54L26.69,52.93L21,49.48C17.942,47.654 16.111,44.299 16.23,40.74ZM62.09,63.74L70.09,63.74L70.09,95.54C70.09,97.438 71.652,99 73.55,99C73.56,99 73.57,99 73.58,99L80.31,99C82.22,99 83.77,97.45 83.77,92.23L83.77,3.44C83.672,2.099 82.541,1.048 81.197,1.048C80.714,1.048 80.24,1.184 79.83,1.44C67.242,9.313 59.572,23.152 59.57,38L59.57,61.27C59.57,62.652 60.708,63.79 62.09,63.79L62.09,63.74Z" style="fill:white;fill-rule:nonzero;"/>
        </g>
    </g>
</svg>
