<?xml version="1.0" encoding="UTF-8" standalone="no"?>
<!DOCTYPE svg PUBLIC "-//W3C//DTD SVG 1.1//EN" "http://www.w3.org/Graphics/SVG/1.1/DTD/svg11.dtd">
<svg width="100%" height="100%" viewBox="0 0 42 42" version="1.1" xmlns="http://www.w3.org/2000/svg" xmlns:xlink="http://www.w3.org/1999/xlink" xml:space="preserve" xmlns:serif="http://www.serif.com/" style="fill-rule:evenodd;clip-rule:evenodd;stroke-linejoin:round;stroke-miterlimit:2;">
    <g transform="matrix(1,0,0,1,-649,0)">
        <g id="Landmark" transform="matrix(1,0,0,0.98178,-0.0282847,0)">
            <rect x="649.028" y="0" width="42" height="42.779" style="fill:none;"/>
            <clipPath id="_clip1">
                <rect x="649.028" y="0" width="42" height="42.779"/>
            </clipPath>
            <g clip-path="url(#_clip1)">
                <g transform="matrix(0.998593,0,0,1.01712,577.844,-47.5501)">
                    <circle cx="92.342" cy="67.779" r="21.03" style="fill:rgb(212,61,99);"/>
                </g>
                <g transform="matrix(0.72247,0,0,0.735877,654.162,3.84431)">
                    <path d="M34.47,20.87L35.09,20.58L37.67,17.48C38,17.074 38,16.486 37.67,16.08L35.09,13L34.47,12.71L24.93,12.71L24.93,7.52C24.93,6.917 24.433,6.42 23.83,6.42L20.17,6.42C19.567,6.42 19.07,6.917 19.07,7.52L19.07,16.89L9.53,16.89C9.29,16.886 9.061,16.993 8.91,17.18L6.33,20.28C6,20.686 6,21.274 6.33,21.68L8.91,24.75C9.061,24.937 9.29,25.044 9.53,25.04L19.07,25.04L19.07,30.25L11,30.25C8.987,30.25 7.33,31.907 7.33,33.92L7.33,36.12C7.33,36.921 7.989,37.58 8.79,37.58C8.793,37.58 8.797,37.58 8.8,37.58L35.2,37.58C35.203,37.58 35.207,37.58 35.21,37.58C36.011,37.58 36.67,36.921 36.67,36.12C36.67,36.12 36.67,36.12 36.67,36.12L36.67,33.92C36.67,31.907 35.013,30.25 33,30.25L24.93,30.25L24.93,20.87L34.47,20.87Z" style="fill:white;fill-rule:nonzero;"/>
                </g>
            </g>
        </g>
    </g>
</svg>
