<svg xmlns="http://www.w3.org/2000/svg" xmlns:xlink="http://www.w3.org/1999/xlink" viewBox="0 0 391.7 65.4">
  <defs>
    <symbol id="bookmark_unmarked" viewBox="0 0 24 45">
      <g transform="matrix(1,0,0,1,0,-0.0731339)" style="fill-rule:evenodd;clip-rule:evenodd;stroke-linejoin:round;stroke-miterlimit:2;">
        <g id="Not-marked" transform="matrix(1,0,0,1,187.402,17.9417)">
          <rect x="-187.402" y="-17.869" width="24" height="44" style="fill:none;"/>
          <g transform="matrix(1,0,0,1,-292.383,-72)">
              <path d="M128.98,98.131L116.98,90.131L104.98,98.131L104.98,54.131L128.98,54.131L128.98,98.131ZM105.98,96.263L116.426,89.299L116.539,89.234L116.659,89.184L116.786,89.151L116.915,89.134L117.046,89.134L117.175,89.151L117.301,89.184L117.422,89.234L117.535,89.299L127.98,96.263L127.98,55.131L105.98,55.131L105.98,96.263Z" style="fill:rgb(63,179,171);"/>
          </g>
        </g>
      </g>
    </symbol>
    <symbol id="bookmark_marked" viewBox="0 0 24 45">
      <g transform="matrix(1,0,0,1,-82.6375,0)" style="fill-rule:evenodd;clip-rule:evenodd;stroke-linejoin:round;stroke-miterlimit:2;">
        <g id="Marked" transform="matrix(1,0,0,1,-176.493,-33)">
            <rect x="259.131" y="33" width="24" height="44.073" style="fill:none;"/>
            <g transform="matrix(1,0,0,1,154.15,-21.1314)">
                <path d="M104.98,54.131L128.98,54.131L128.98,98.131L116.98,90.131L104.98,98.131L104.98,54.131Z" style="fill:rgb(63,179,171);"/>
            </g>
        </g>
      </g>
    </symbol>
    <symbol id="logo" viewBox="0 0 237 91">
      <g fill-rule="evenodd" stroke-linejoin="round" stroke-miterlimit="2" clip-rule="evenodd">
        <path fill="none" d="M0 0h236.68v90.06H0z"/>
        <clipPath id="a">
          <path d="M0 0h236.68v90.06H0z"/>
        </clipPath>
        <g clip-path="url(#a)">
          <path fill="#3fb3ab" fill-rule="nonzero" d="M10.74 36.77A131.18 131.18 0 015.8 25.54 169.85 169.85 0 011 11.52h7.58c.34 1.25.72 2.6 1.16 4.03.43 1.49.86 2.93 1.34 4.42.43 1.49.91 2.97 1.4 4.37.42 1.39.9 2.68 1.34 3.84.43-1.16.86-2.45 1.34-3.84.48-1.4.96-2.88 1.44-4.37.43-1.49.91-2.93 1.34-4.42.44-1.44.77-2.78 1.1-4.03h7.4a190.49 190.49 0 01-4.75 14.02 147.12 147.12 0 01-5 11.23h-5.95zM39.45 31.78c.72 0 1.39 0 2.01-.05.63-.05 1.16-.1 1.54-.15v-5.42c-.29-.05-.72-.14-1.3-.2-.57-.04-1.1-.09-1.58-.09-.67 0-1.3.05-1.87.1-.63.1-1.15.24-1.59.48-.43.24-.81.53-1.05.91s-.39.86-.39 1.44c0 1.1.39 1.87 1.16 2.3.72.44 1.77.68 3.07.68zm-.58-20.93c2.11 0 3.89.24 5.28.72a8.33 8.33 0 013.41 2.06 7.72 7.72 0 011.78 3.27c.33 1.3.52 2.68.52 4.27v14.88c-1 .24-2.44.48-4.27.81-1.82.3-4.03.44-6.62.44-1.63 0-3.12-.15-4.42-.44a9.38 9.38 0 01-3.45-1.44 6.32 6.32 0 01-2.21-2.54 8.64 8.64 0 01-.77-3.89 6.99 6.99 0 013.26-6.19c1.01-.62 2.12-1.06 3.41-1.34 1.3-.24 2.6-.39 3.99-.39.9 0 1.77.05 2.5.1.71.1 1.29.19 1.72.33v-.67c0-1.2-.38-2.2-1.1-2.93-.72-.72-2.02-1.1-3.84-1.1-1.2 0-2.4.1-3.6.24-1.2.2-2.21.43-3.08.77l-.9-5.76c.42-.15.9-.29 1.58-.43.62-.15 1.3-.24 2.01-.39.72-.1 1.54-.19 2.35-.29.82-.04 1.64-.1 2.45-.1zM56.34 12.38c1.2-.33 2.79-.67 4.7-1 1.93-.3 3.94-.44 6.06-.44 2.16 0 3.93.3 5.37.82a8.4 8.4 0 013.36 2.4c.82 1 1.44 2.26 1.78 3.65.33 1.39.53 2.97.53 4.7v14.26h-7.16v-13.4c0-2.3-.28-3.93-.9-4.89-.63-.96-1.74-1.44-3.42-1.44-.52 0-1.05 0-1.63.05-.57.05-1.1.14-1.53.19v19.49h-7.16V12.38zM83.42 24.14c0-1.82.28-3.55.9-5.18a12.58 12.58 0 012.55-4.22c1.1-1.2 2.5-2.12 4.08-2.84a13.1 13.1 0 015.47-1.05c1.35 0 2.6.1 3.7.33 1.1.24 2.2.63 3.26 1.06l-1.48 5.71a20.2 20.2 0 00-2.21-.67c-.82-.2-1.68-.29-2.69-.29-2.11 0-3.7.67-4.7 1.97-1.06 1.3-1.59 3.02-1.59 5.18 0 2.26.48 4.04 1.49 5.28.96 1.25 2.64 1.88 5.09 1.88.86 0 1.77-.1 2.78-.24 1.01-.15 1.92-.44 2.74-.77l1 5.85c-.81.34-1.87.68-3.11.92-1.25.24-2.64.38-4.13.38a15 15 0 01-5.95-1.06 10.46 10.46 0 01-4.08-2.78c-1.1-1.2-1.88-2.6-2.36-4.22a16.61 16.61 0 01-.76-5.24zM115.77 36.77h-7.15V11.52h7.15v25.25zm.67-32.55c0 1.3-.43 2.36-1.25 3.08a4.4 4.4 0 01-3.02 1.15 4.21 4.21 0 01-2.98-1.15 3.82 3.82 0 01-1.3-3.08c0-1.3.44-2.35 1.3-3.12a4.6 4.6 0 016 0 4.12 4.12 0 011.25 3.12zM122.25 5.23l7.15-1.15v7.44h8.6v5.95h-8.6v8.88c0 1.49.29 2.69.82 3.6.52.91 1.58 1.35 3.16 1.35.77 0 1.59-.1 2.4-.24.82-.15 1.54-.34 2.21-.58l1.01 5.57c-.86.33-1.82.67-2.88.91a17.7 17.7 0 01-3.89.38 11.9 11.9 0 01-4.85-.81 7.35 7.35 0 01-4.65-5.62 18.45 18.45 0 01-.48-4.46V5.23zM166.7 11.52c-1.44 4.85-2.93 9.4-4.52 13.68-1.58 4.27-3.26 8.4-5.13 12.38a28.47 28.47 0 01-2.02 3.7c-.67 1-1.39 1.82-2.2 2.5a9.06 9.06 0 01-2.7 1.44c-1 .28-2.2.43-3.55.43-1.1 0-2.16-.1-3.07-.29-.96-.24-1.73-.48-2.35-.72l1.25-5.71c.72.24 1.39.43 1.97.53.57.1 1.2.14 1.82.14 1.3 0 2.26-.34 2.98-1a9.17 9.17 0 001.72-2.89 147.58 147.58 0 01-4.9-10.8 131.03 131.03 0 01-4.6-13.39h7.58c.34 1.25.72 2.6 1.16 4.03.43 1.49.86 2.93 1.34 4.42.48 1.49.96 2.97 1.49 4.37.48 1.39.96 2.68 1.39 3.84.43-1.16.86-2.45 1.3-3.84.43-1.4.9-2.88 1.34-4.37.38-1.49.82-2.93 1.25-4.42l1.05-4.03h7.4z"/>
          <g>
            <path fill="#3fb3ab" fill-rule="nonzero" d="M60.3 69.47c0 3.65 1.5 5.5 4.45 5.5.66 0 1.32-.09 1.89-.26.57-.18 1.1-.4 1.5-.62V63.62c-.31-.04-.7-.13-1.15-.18-.44-.04-.97-.04-1.54-.04-1.71 0-3.03.57-3.87 1.72a7.2 7.2 0 00-1.28 4.35zm14.4 9.42c0 3.78-.98 6.6-2.87 8.45-1.93 1.8-4.93 2.72-8.93 2.72-1.4 0-2.82-.13-4.22-.35-1.41-.26-2.73-.61-3.92-1.01l1.14-5.5A18.68 18.68 0 0063 84.52c1.89 0 3.21-.4 4-1.23a4.59 4.59 0 001.15-3.17v-.84c-.7.31-1.41.58-2.16.7-.75.18-1.58.27-2.46.27-3.22 0-5.64-.97-7.35-2.86-1.72-1.85-2.55-4.53-2.55-7.92 0-1.71.26-3.25.79-4.66a10.23 10.23 0 016.03-5.9c1.45-.53 3.12-.79 4.97-.79.79 0 1.58.04 2.46.09.84.09 1.63.17 2.47.3l2.37.4c.75.18 1.41.35 1.98.53v19.45zM100.6 81c-1.1.3-2.54.62-4.3.92-1.76.27-3.61.4-5.55.4-1.98 0-3.6-.26-4.88-.8a7.25 7.25 0 01-3.13-2.24 8.39 8.39 0 01-1.62-3.38c-.31-1.32-.49-2.78-.49-4.36v-12.9h6.56v12.1c0 2.12.26 3.66.83 4.58.58.93 1.59 1.41 3.13 1.41a53.84 53.84 0 002.9-.22V58.65h6.56V81zM113.32 81.8h-6.55V58.64h6.55v23.14zm.62-29.84c0 1.19-.4 2.16-1.14 2.82-.8.7-1.72 1.05-2.78 1.05a3.86 3.86 0 01-2.72-1.05 3.5 3.5 0 01-1.2-2.82c0-1.19.4-2.16 1.2-2.86a4.22 4.22 0 015.5 0c.74.7 1.14 1.67 1.14 2.86zM125.07 70.04c0 2.03.44 3.66 1.37 4.89.92 1.23 2.24 1.85 4.04 1.85a27 27 0 002.86-.22V64.63c-.4-.26-.92-.48-1.58-.66a7.99 7.99 0 00-2.02-.26c-3.13 0-4.67 2.11-4.67 6.33zm14.83 11c-.57.18-1.28.36-2.02.49-.75.17-1.59.3-2.38.44-.84.13-1.72.22-2.55.3-.88.05-1.72.1-2.51.1-1.9 0-3.6-.27-5.1-.84a10 10 0 01-6.12-6.2 13.55 13.55 0 01-.84-4.98c0-1.89.22-3.56.7-5.1.5-1.5 1.15-2.77 2.03-3.83a8.9 8.9 0 013.26-2.42c1.27-.57 2.73-.84 4.35-.84a10.58 10.58 0 014.62 1.02V48.7l6.56-1.05v33.4zM144.96 70.4c0-2.07.3-3.88.97-5.42a11.27 11.27 0 012.46-3.82 10.92 10.92 0 017.66-3.12c3.3 0 5.9 1 7.79 2.98 1.89 2.03 2.86 4.98 2.86 8.9 0 .39 0 .78-.05 1.22-.04.49-.04.88-.09 1.24H151.7c.13 1.36.8 2.42 1.9 3.2 1.1.8 2.59 1.2 4.48 1.2 1.19 0 2.38-.14 3.57-.36 1.14-.22 2.06-.48 2.81-.79l.88 5.33a17.75 17.75 0 01-5.68 1.32c-.83.08-1.62.13-2.46.13-2.07 0-3.87-.31-5.41-.93a9.92 9.92 0 01-3.83-2.55 9.95 9.95 0 01-2.24-3.78 13.8 13.8 0 01-.75-4.75zm15.4-2.51a9.67 9.67 0 00-.26-1.63 4.78 4.78 0 00-.75-1.4 4.8 4.8 0 00-1.28-1.02 4.34 4.34 0 00-1.93-.4c-.75 0-1.37.14-1.9.36a4.03 4.03 0 00-2.11 2.42c-.22.57-.35 1.1-.44 1.67h8.67z"/>
          </g>
          <g transform="translate(-384.86 -102.7)">
            <clipPath id="b">
              <path d="M569.08 102.7h53.47v90.06h-53.47z"/>
            </clipPath>
            <g clip-path="url(#b)">
              <path fill="#27a587" d="M569.08 102.7h53.47v90.06h-53.47z"/>
              <path fill="#27a587" d="M569.08 141.86h30.78v15.83h-30.78z"/>
              <path fill="#3ce2ea" d="M569.08 102.7h53.47v39.16h-53.47z"/>
              <path fill="#27a587" d="M569.08 141.86l16.02-29.16 10.71 14.91 5.1-6.36 11.19 14.28-.08 6.33h-42.94z"/>
              <path fill="#1f8e73" d="M590.59 141.86l25.96-14.58 6 4.4v10.18h-31.96z"/>
              <path fill="#2b6170" d="M592.08 134.57h5.76v20.08h-5.76zM603.09 138.26h3.48v10.35h-3.48z"/>
              <path fill="#286c80" d="M586.1 139.47h7.47v18.28h-7.47z"/>
              <path fill="#1a5566" d="M596.93 136.77h5.45v19.58h-5.45zM606.57 140.05h1.96v6h-1.96z"/>
              <path fill="#286c80" d="M595.81 145.51h3.84v9.14h-3.84zM601.7 141.07h2.77v9.97h-2.77z"/>
              <path fill="#2b6170" d="M576.55 140.98H584v18.28h-7.46zM569.08 144.12h5.82v18.29h-5.82z"/>
              <path fill="#286c80" d="M569.08 157.15h7.47v11.57h-7.47z"/>
              <path fill="#1a5566" d="M582.86 143.77h6.48V161h-6.48zM592.08 150.59h5v8.13h-5zM571.66 148.53h6.48v17.24h-6.48z"/>
              <path fill="#286c80" d="M575.98 153.27h10.71v8.83H576z"/>
              <path fill="#2693b3" d="M608.57 141.86s-1.96 6.5-10.76 10.5c-5.16 2.33-9.28 3.52-15.34 6.03-7.01 2.9-13.4 9.64-13.4 9.64v24.74h26.74s.36-12.25 4.1-17.77c4.21-6.22 8.23-8.86 11.19-14.78 3.83-7.65 2.85-18.36 2.85-18.36h-5.38z"/>
              <path fill="#3faac9" d="M608.57 141.86s1-.79.76-2.14c-.23-1.26-.87-2.19-1.4-3.53-.52-1.35-.8-3.63-.8-3.63l1.12-.62s1.07 2.4 1.74 3.6c.66 1.18 2.5 2.66 3.13 3.8.66 1.18.83 2.52.83 2.52h-5.38z"/>
              <path fill="#248971" d="M621.53 143.5h.73v.37h-.73zM621.9 142.03l2.15 1.47h-4.3l2.15-1.47z"/>
              <path fill="#248971" d="M621.9 141.05l1.95 1.47h-3.9l1.95-1.47z"/>
              <path fill="#248971" d="M621.9 140.43l1.74 1.25h-3.49l1.75-1.25z"/>
              <path fill="#248971" d="M621.9 139.61l1.56 1.25h-3.13l1.57-1.25zM616.73 143.82h.73v.38h-.73z"/>
              <path fill="#248971" d="M617.1 142.36l2.14 1.46h-4.3l2.15-1.46z"/>
              <path fill="#248971" d="M617.1 141.38l1.95 1.47h-3.91l1.95-1.47z"/>
              <path fill="#248971" d="M617.1 140.76l1.74 1.24h-3.49l1.74-1.24z"/>
              <path fill="#248971" d="M617.1 139.94l1.56 1.24h-3.13l1.56-1.24z"/>
              <path fill="#309b81" d="M618.9 144.93h.72v.37h-.73zM619.25 143.47l2.15 1.46h-4.3l2.15-1.46z"/>
              <path fill="#309b81" d="M619.26 142.5l1.95 1.46h-3.9l1.95-1.46z"/>
              <path fill="#309b81" d="M619.26 141.88l1.74 1.24h-3.49l1.75-1.24z"/>
              <path fill="#309b81" d="M619.26 141.07l1.56 1.23h-3.13l1.57-1.23zM614.55 145.2h.73v.38h-.73z"/>
              <path fill="#309b81" d="M614.92 143.74l2.15 1.46h-4.3l2.15-1.46z"/>
              <path fill="#309b81" d="M614.92 142.76l1.95 1.47h-3.9l1.95-1.47z"/>
              <path fill="#309b81" d="M614.92 142.14l1.74 1.25h-3.48l1.74-1.25z"/>
              <path fill="#309b81" d="M614.92 141.32l1.56 1.25h-3.12l1.56-1.25z"/>
              <path fill="#3fb3ab" d="M616.6 146.14h.74v.38h-.73zM616.97 144.67l2.17 1.47h-4.33l2.16-1.47z"/>
              <path fill="#3fb3ab" d="M616.97 143.68l1.97 1.48H615l1.97-1.48z"/>
              <path fill="#3fb3ab" d="M616.97 143.05l1.76 1.26h-3.51l1.75-1.26z"/>
              <path fill="#3fb3ab" d="M616.97 142.23l1.58 1.25h-3.15l1.57-1.25zM621.01 146.19h.73v.37h-.73zM621.38 144.7l2.16 1.49h-4.33l2.17-1.48z"/>
              <path fill="#3fb3ab" d="M621.38 143.72l1.97 1.48h-3.94l1.97-1.48z"/>
              <path fill="#3fb3ab" d="M621.38 143.1l1.75 1.25h-3.5l1.75-1.25z"/>
              <path fill="#3fb3ab" d="M621.38 142.27l1.57 1.25h-3.15l1.58-1.25z"/>
              <path fill="#248971" d="M618.68 148.47h.96v.5h-.96zM619.16 146.53l2.85 1.94h-5.7l2.85-1.94z"/>
              <path fill="#248971" d="M619.16 145.23l2.59 1.94h-5.18l2.59-1.94z"/>
              <path fill="#248971" d="M619.16 144.4l2.3 1.66h-4.6l2.3-1.65z"/>
              <path fill="#248971" d="M619.16 143.32l2.07 1.65h-4.14l2.07-1.65zM614.87 148.8h.97v.49h-.97zM615.36 146.85l2.84 1.94h-5.7l2.86-1.94z"/>
              <path fill="#248971" d="M615.36 145.56l2.58 1.94h-5.17l2.59-1.94z"/>
              <path fill="#248971" d="M615.36 144.73l2.3 1.65h-4.61l2.3-1.65z"/>
              <path fill="#248971" d="M615.36 143.65l2.07 1.65h-4.14l2.07-1.65z"/>
              <path fill="#309b81" d="M619.62 150.33h.96v.49h-.96zM620.1 148.4l2.85 1.93h-5.7l2.85-1.93z"/>
              <path fill="#309b81" d="M620.1 147.11l2.6 1.93h-5.18l2.58-1.93z"/>
              <path fill="#309b81" d="M620.1 146.3l2.31 1.63h-4.61l2.3-1.64z"/>
              <path fill="#309b81" d="M620.1 145.21l2.08 1.64h-4.14l2.07-1.64zM615.27 150.59h.96v.49h-.96zM615.75 148.66l2.83 1.93h-5.66l2.83-1.93z"/>
              <path fill="#309b81" d="M615.75 147.37l2.58 1.93h-5.15l2.57-1.93z"/>
              <path fill="#309b81" d="M615.75 146.55l2.3 1.64h-4.6l2.3-1.64z"/>
              <path fill="#309b81" d="M615.75 145.47l2.06 1.64h-4.12l2.06-1.64z"/>
              <g>
                <path fill="#3fb3ab" d="M616.17 152.33h.95v.5h-.95z"/>
                <path fill="#3fb3ab" d="M616.65 150.4l2.83 1.94h-5.67l2.84-1.94z"/>
                <path fill="#3fb3ab" d="M616.65 149.12l2.57 1.93h-5.15l2.58-1.93z"/>
                <path fill="#3fb3ab" d="M616.65 148.3l2.3 1.64h-4.6l2.3-1.64z"/>
                <path fill="#3fb3ab" d="M616.65 147.22l2.06 1.64h-4.12l2.06-1.64z"/>
              </g>
              <g>
                <path fill="#3fb3ab" d="M621.92 152.39h.96v.5h-.96z"/>
                <path fill="#3fb3ab" d="M622.4 150.46l2.83 1.93h-5.66l2.83-1.93z"/>
                <path fill="#3fb3ab" d="M622.4 149.17l2.58 1.93h-5.15l2.57-1.93z"/>
                <path fill="#3fb3ab" d="M622.4 148.35l2.3 1.64h-4.6l2.3-1.64z"/>
                <path fill="#3fb3ab" d="M622.4 147.27l2.06 1.64h-4.12l2.06-1.64z"/>
              </g>
              <g>
                <path fill="#248971" d="M618.9 154.62h1.12v.57h-1.12zM619.46 152.37l3.3 2.25h-6.6l3.3-2.25z"/>
                <path fill="#248971" d="M619.46 150.87l3 2.25h-6l3-2.25z"/>
                <path fill="#248971" d="M619.46 149.91l2.68 1.91h-5.35l2.67-1.9z"/>
                <path fill="#248971" d="M619.46 148.65l2.4 1.91h-4.8l2.4-1.9z"/>
              </g>
              <g>
                <path fill="#248971" d="M614.5 155h1.1v.57h-1.1zM615.05 152.74l3.3 2.25h-6.6l3.3-2.25z"/>
                <path fill="#248971" d="M615.05 151.24l3 2.25h-6l3-2.25z"/>
                <path fill="#248971" d="M615.05 150.29l2.68 1.9h-5.35l2.67-1.9z"/>
                <path fill="#248971" d="M615.05 149.03l2.4 1.9h-4.8l2.4-1.9z"/>
              </g>
              <g>
                <path fill="#309b81" d="M619.96 157.55h1.12v.57h-1.12zM620.52 155.31l3.3 2.24h-6.6l3.3-2.24z"/>
                <path fill="#309b81" d="M620.52 153.82l3 2.24h-6l3-2.24z"/>
                <path fill="#309b81" d="M620.52 152.87l2.68 1.9h-5.35l2.67-1.9z"/>
                <path fill="#309b81" d="M620.52 151.62l2.4 1.9h-4.8l2.4-1.9z"/>
              </g>
              <g>
                <path fill="#309b81" d="M614.92 157.85h1.11v.57h-1.1z"/>
                <path fill="#309b81" d="M615.48 155.61l3.28 2.24h-6.56l3.28-2.24z"/>
                <path fill="#309b81" d="M615.48 154.12l2.99 2.24h-5.98l2.99-2.24z"/>
                <path fill="#309b81" d="M615.48 153.17l2.66 1.9h-5.32l2.66-1.9z"/>
                <path fill="#309b81" d="M615.48 151.92l2.39 1.9h-4.78l2.39-1.9z"/>
              </g>
              <g>
                <path fill="#3fb3ab" d="M613.64 159.87h1.11v.58h-1.11z"/>
                <path fill="#3fb3ab" d="M614.2 157.64l3.28 2.24h-6.57l3.29-2.24z"/>
                <path fill="#3fb3ab" d="M614.2 156.14l2.98 2.24h-5.97l2.99-2.24z"/>
                <path fill="#3fb3ab" d="M614.2 155.2l2.66 1.9h-5.32l2.66-1.9z"/>
                <path fill="#3fb3ab" d="M614.2 153.94l2.38 1.9h-4.77l2.39-1.9z"/>
              </g>
              <g>
                <path fill="#3fb3ab" d="M620.31 159.94h1.11v.57h-1.1zM620.87 157.7l3.28 2.24h-6.57l3.29-2.24z"/>
                <path fill="#3fb3ab" d="M620.87 156.2l2.98 2.25h-5.97l2.99-2.24z"/>
                <path fill="#3fb3ab" d="M620.87 155.26l2.66 1.9h-5.32l2.66-1.9z"/>
                <path fill="#3fb3ab" d="M620.87 154l2.39 1.9h-4.78l2.39-1.9z"/>
              </g>
              <g>
                <path fill="#248971" d="M622.7 165.5h1.49v.76h-1.5zM623.44 162.49l4.41 3h-8.82l4.41-3z"/>
                <path fill="#248971" d="M623.44 160.48l4.01 3.01h-8.02l4.01-3z"/>
                <path fill="#248971" d="M623.44 159.2l3.58 2.56h-7.15l3.57-2.55z"/>
                <path fill="#248971" d="M623.44 157.52l3.21 2.56h-6.41l3.2-2.56z"/>
              </g>
              <g>
                <path fill="#248971" d="M617.29 165.5h1.49v.76h-1.5zM618.03 162.49l4.41 3h-8.82l4.41-3z"/>
                <path fill="#248971" d="M618.03 160.48l4.01 3.01h-8.01l4-3z"/>
                <path fill="#248971" d="M618.03 159.2l3.58 2.56h-7.15l3.57-2.55z"/>
                <path fill="#248971" d="M618.03 157.52l3.21 2.56h-6.41l3.2-2.56z"/>
              </g>
              <g>
                <path fill="#248971" d="M611.88 164.87h1.49v.77h-1.5zM612.62 161.86l4.41 3.01h-8.82l4.41-3z"/>
                <path fill="#248971" d="M612.62 159.86l4.01 3h-8.01l4-3z"/>
                <path fill="#248971" d="M612.62 158.58l3.58 2.56h-7.15l3.57-2.56z"/>
                <path fill="#248971" d="M612.62 156.9l3.21 2.55h-6.41l3.2-2.55z"/>
              </g>
              <g>
                <path fill="#309b81" d="M618.5 169.79h1.62v.84h-1.62z"/>
                <path fill="#309b81" d="M619.3 166.52l4.8 3.27h-9.59l4.8-3.27z"/>
                <path fill="#309b81" d="M619.3 164.34l4.37 3.27h-8.72l4.36-3.27z"/>
                <path fill="#309b81" d="M619.3 162.95l3.9 2.78h-7.78l3.89-2.78z"/>
                <path fill="#309b81" d="M619.31 161.12l3.5 2.77h-6.99l3.49-2.77z"/>
              </g>
              <g>
                <path fill="#309b81" d="M611.94 168.65h1.62v.84h-1.62zM612.75 165.38l4.8 3.27h-9.6l4.8-3.27z"/>
                <path fill="#309b81" d="M612.75 163.2l4.37 3.27h-8.73l4.36-3.27z"/>
                <path fill="#309b81" d="M612.75 161.8l3.9 2.79h-7.79l3.9-2.78z"/>
                <path fill="#309b81" d="M612.76 159.98l3.49 2.78h-6.98l3.49-2.78z"/>
              </g>
              <g>
                <path fill="#3fb3ab" d="M609.12 170.29h1.45v.75h-1.45zM609.85 167.37l4.28 2.92h-8.57l4.29-2.92z"/>
                <path fill="#3fb3ab" d="M609.85 165.42l3.9 2.92h-7.8l3.9-2.92z"/>
                <path fill="#3fb3ab" d="M609.85 164.17l3.47 2.49h-6.95l3.48-2.49z"/>
                <path fill="#3fb3ab" d="M609.85 162.54l3.12 2.48h-6.24l3.12-2.48z"/>
              </g>
              <g>
                <path fill="#3fb3ab" d="M616.53 170.37h1.45v.75h-1.45zM617.25 167.45l4.3 2.92h-8.58l4.28-2.92z"/>
                <path fill="#3fb3ab" d="M617.26 165.5l3.9 2.92h-7.8l3.9-2.92z"/>
                <path fill="#3fb3ab" d="M617.26 164.26l3.47 2.48h-6.95l3.48-2.48z"/>
                <path fill="#3fb3ab" d="M617.26 162.62l3.12 2.48h-6.24l3.12-2.48z"/>
              </g>
              <g>
                <path fill="#248971" d="M619.7 172.59h1.49v.77h-1.5zM620.44 169.58l4.41 3.01h-8.82l4.41-3z"/>
                <path fill="#248971" d="M620.44 167.58l4.01 3h-8.02l4.01-3z"/>
                <path fill="#248971" d="M620.44 166.3l3.58 2.55h-7.15l3.57-2.55z"/>
                <path fill="#248971" d="M620.44 164.62l3.21 2.55h-6.41l3.2-2.55z"/>
              </g>
              <g>
                <path fill="#248971" d="M612.88 172.59h1.49v.77h-1.5zM613.62 169.58l4.41 3.01h-8.82l4.41-3z"/>
                <path fill="#248971" d="M613.62 167.58l4.01 3h-8.01l4-3z"/>
                <path fill="#248971" d="M613.62 166.3l3.58 2.55h-7.15l3.57-2.55z"/>
                <path fill="#248971" d="M613.62 164.62l3.21 2.55h-6.41l3.2-2.55z"/>
              </g>
              <g>
                <path fill="#248971" d="M607.25 172.59h1.5v.77h-1.5zM608 169.58l4.41 3.01h-8.82l4.41-3z"/>
                <path fill="#248971" d="M608 167.58l4.01 3H604l4.01-3z"/>
                <path fill="#248971" d="M608 166.3l3.58 2.55h-7.15l3.57-2.55z"/>
                <path fill="#248971" d="M608 164.62l3.21 2.55h-6.41l3.2-2.55z"/>
              </g>
              <g>
                <path fill="#309b81" d="M618.93 176.69h1.62v.83h-1.62zM619.74 173.41l4.8 3.28h-9.6l4.8-3.28z"/>
                <path fill="#309b81" d="M619.75 171.23l4.36 3.28h-8.73l4.37-3.28z"/>
                <path fill="#309b81" d="M619.75 169.84l3.89 2.78h-7.78l3.89-2.78z"/>
                <path fill="#309b81" d="M619.75 168.01l3.49 2.78h-6.98l3.49-2.78z"/>
              </g>
              <g>
                <path fill="#309b81" d="M611.33 176.69h1.63v.83h-1.63zM612.15 173.41l4.8 3.28h-9.6l4.8-3.28z"/>
                <path fill="#309b81" d="M612.15 171.23l4.36 3.28h-8.72l4.36-3.28z"/>
                <path fill="#309b81" d="M612.15 169.84l3.89 2.78h-7.78l3.89-2.78z"/>
                <path fill="#309b81" d="M612.15 168.01l3.49 2.78h-6.98l3.49-2.78z"/>
              </g>
              <g>
                <path fill="#309b81" d="M604.78 175.55h1.62v.83h-1.62zM605.59 172.28l4.8 3.27h-9.6l4.8-3.27z"/>
                <path fill="#309b81" d="M605.6 170.1l4.35 3.27h-8.72l4.36-3.28z"/>
                <path fill="#309b81" d="M605.6 168.7l3.88 2.78h-7.78l3.9-2.78z"/>
                <path fill="#309b81" d="M605.6 166.87l3.48 2.78h-6.98l3.5-2.78z"/>
              </g>
              <g>
                <path fill="#3fb3ab" d="M604.43 180.49h1.89v.97h-1.89zM605.38 176.68l5.58 3.8h-11.17l5.59-3.8z"/>
                <path fill="#3fb3ab" d="M605.38 174.14l5.07 3.81H600.3l5.08-3.8z"/>
                <path fill="#3fb3ab" d="M605.38 172.53l4.52 3.23h-9.05l4.53-3.23z"/>
                <path fill="#3fb3ab" d="M605.38 170.4l4.06 3.23h-8.12l4.06-3.23z"/>
              </g>
              <g>
                <path fill="#3fb3ab" d="M614.07 180.6h1.9v.97h-1.9z"/>
                <path fill="#3fb3ab" d="M615.02 176.8l5.58 3.8h-11.16l5.58-3.8z"/>
                <path fill="#3fb3ab" d="M615.02 174.25l5.08 3.81h-10.15l5.07-3.8z"/>
                <path fill="#3fb3ab" d="M615.02 172.64l4.53 3.23h-9.05l4.52-3.23z"/>
                <path fill="#3fb3ab" d="M615.02 170.5l4.06 3.24h-8.12l4.06-3.23z"/>
              </g>
              <g>
                <path fill="#248971" d="M609.11 182.2h1.71v.88h-1.7zM609.97 178.75l5.05 3.45h-10.1l5.05-3.45z"/>
                <path fill="#248971" d="M609.97 176.46l4.6 3.44h-9.19l4.6-3.44z"/>
                <path fill="#248971" d="M609.97 175l4.1 2.92h-8.2l4.1-2.93z"/>
                <path fill="#248971" d="M609.97 173.07l3.68 2.92h-7.35l3.67-2.92z"/>
              </g>
              <g>
                <path fill="#248971" d="M617.63 182.3h1.71v.88h-1.7zM618.49 178.86l5.05 3.44h-10.1l5.05-3.44z"/>
                <path fill="#248971" d="M618.5 176.56l4.58 3.45h-9.18l4.6-3.45z"/>
                <path fill="#248971" d="M618.5 175.1l4.09 2.92h-8.2l4.1-2.92z"/>
                <path fill="#248971" d="M618.5 173.17l3.67 2.93h-7.35l3.67-2.93z"/>
              </g>
              <g>
                <path fill="#248971" d="M600.64 180.16h1.71v.89h-1.7z"/>
                <path fill="#248971" d="M601.5 176.72l5.05 3.45h-10.1l5.05-3.45z"/>
                <path fill="#248971" d="M601.5 174.42l4.6 3.45h-9.2l4.6-3.45z"/>
                <path fill="#248971" d="M601.5 172.96l4.1 2.92h-8.2l4.1-2.92z"/>
                <path fill="#248971" d="M601.5 171.03l3.67 2.93h-7.34l3.67-2.93z"/>
              </g>
              <g>
                <path fill="#309b81" d="M613.7 185.17h1.72v.88h-1.71zM614.56 181.73l5.06 3.44h-10.1l5.04-3.44z"/>
                <path fill="#309b81" d="M614.56 179.43l4.6 3.45h-9.19l4.6-3.45z"/>
                <path fill="#309b81" d="M614.56 177.97l4.1 2.92h-8.19l4.1-2.92z"/>
                <path fill="#309b81" d="M614.57 176.04l3.67 2.92h-7.35l3.68-2.92z"/>
              </g>
              <g>
                <path fill="#309b81" d="M622.69 182.98h1.7v.88h-1.7zM623.54 179.54l5.05 3.44h-10.1l5.05-3.44z"/>
                <path fill="#309b81" d="M623.54 177.24l4.6 3.45h-9.19l4.6-3.45z"/>
                <path fill="#309b81" d="M623.54 175.78l4.1 2.92h-8.2l4.1-2.92z"/>
                <path fill="#309b81" d="M623.54 173.85l3.68 2.92h-7.35l3.67-2.92z"/>
              </g>
              <g>
                <path fill="#309b81" d="M605.48 183.97h1.7v.88h-1.7zM606.34 180.53l5.05 3.44h-10.1l5.05-3.44z"/>
                <path fill="#309b81" d="M606.34 178.23l4.6 3.45h-9.2l4.6-3.45z"/>
                <path fill="#309b81" d="M606.34 176.77l4.1 2.92h-8.2l4.1-2.92z"/>
                <path fill="#309b81" d="M606.34 174.84l3.67 2.93h-7.34l3.67-2.93z"/>
              </g>
              <g>
                <path fill="#309b81" d="M597.76 183.97h1.7v.88h-1.7zM598.61 180.53l5.05 3.44h-10.1l5.05-3.44z"/>
                <path fill="#309b81" d="M598.61 178.23l4.6 3.45h-9.19l4.6-3.45z"/>
                <path fill="#309b81" d="M598.61 176.77l4.1 2.92h-8.2l4.1-2.92z"/>
                <path fill="#309b81" d="M598.61 174.84l3.68 2.93h-7.35l3.67-2.93z"/>
              </g>
              <g>
                <path fill="#3fb3ab" d="M610.01 189.94h1.9v.97H610zM610.96 186.13l5.58 3.8h-11.16l5.58-3.8z"/>
                <path fill="#3fb3ab" d="M610.96 183.6l5.08 3.8h-10.15l5.07-3.8z"/>
                <path fill="#3fb3ab" d="M610.96 181.98l4.53 3.23h-9.05l4.52-3.23z"/>
                <path fill="#3fb3ab" d="M610.96 179.85l4.06 3.23h-8.12l4.06-3.23z"/>
              </g>
              <g>
                <path fill="#3fb3ab" d="M619.66 193.17h1.89v.97h-1.9z"/>
                <path fill="#3fb3ab" d="M620.6 189.36l5.59 3.81h-11.17l5.58-3.8z"/>
                <path fill="#3fb3ab" d="M620.6 186.83l5.08 3.8h-10.15l5.07-3.8z"/>
                <path fill="#3fb3ab" d="M620.6 185.21l4.53 3.23h-9.05l4.52-3.23z"/>
                <path fill="#3fb3ab" d="M620.6 183.08l4.07 3.23h-8.12l4.05-3.23z"/>
              </g>
              <g>
                <path fill="#3fb3ab" d="M600.9 186.13h1.89v.97h-1.89zM601.85 182.32l5.58 3.81h-11.16l5.58-3.8z"/>
                <path fill="#3fb3ab" d="M601.85 179.79l5.07 3.8h-10.15l5.08-3.8z"/>
                <path fill="#3fb3ab" d="M601.85 178.17l4.52 3.23h-9.05l4.53-3.23z"/>
                <path fill="#3fb3ab" d="M601.85 176.04l4.06 3.23h-8.12l4.06-3.23z"/>
              </g>
              <g>
                <path fill="#248971" d="M604.52 190.7h1.71v.89h-1.7z"/>
                <path fill="#248971" d="M605.38 187.26l5.05 3.45h-10.1l5.05-3.45z"/>
                <path fill="#248971" d="M605.38 184.96l4.6 3.45h-9.2l4.6-3.45z"/>
                <path fill="#248971" d="M605.38 183.5l4.1 2.93h-8.2l4.1-2.93z"/>
                <path fill="#248971" d="M605.38 181.57l3.68 2.93h-7.35l3.67-2.93z"/>
              </g>
              <g>
                <path fill="#248971" d="M614.17 192.21h1.7v.88h-1.7zM615.02 188.77l5.05 3.44h-10.1l5.05-3.44z"/>
                <path fill="#248971" d="M615.02 186.47l4.6 3.45h-9.19l4.6-3.45z"/>
                <path fill="#248971" d="M615.02 185l4.1 2.93h-8.2l4.1-2.92z"/>
                <path fill="#248971" d="M615.02 183.08l3.68 2.92h-7.35l3.67-2.92z"/>
              </g>
              <g>
                <path fill="#248971" d="M595.94 187.83h1.71v.88h-1.7zM596.8 184.38l5.05 3.45h-10.1l5.05-3.45z"/>
                <path fill="#248971" d="M596.8 182.09l4.6 3.44h-9.2l4.6-3.44z"/>
                <path fill="#248971" d="M596.8 180.62l4.1 2.93h-8.2l4.1-2.93z"/>
                <path fill="#248971" d="M596.8 178.7l3.68 2.92h-7.35l3.67-2.92z"/>
              </g>
              <g>
                <path fill="#309b81" d="M599.47 189.44h1.71v.88h-1.7zM600.33 186l5.05 3.44h-10.1l5.05-3.44z"/>
                <path fill="#309b81" d="M600.33 183.7l4.6 3.45h-9.2l4.6-3.45z"/>
                <path fill="#309b81" d="M600.33 182.24l4.1 2.92h-8.2l4.1-2.92z"/>
                <path fill="#309b81" d="M600.33 180.31l3.67 2.93h-7.34l3.67-2.93z"/>
              </g>
              <g>
                <path fill="#3fb3ab" d="M595.32 191.66h1.89v.98h-1.9z"/>
                <path fill="#3fb3ab" d="M596.26 187.86l5.59 3.8h-11.17l5.58-3.8z"/>
                <path fill="#3fb3ab" d="M596.27 185.32l5.07 3.8H591.2l5.08-3.8z"/>
                <path fill="#3fb3ab" d="M596.27 183.7l4.52 3.23h-9.05l4.53-3.23z"/>
                <path fill="#3fb3ab" d="M596.27 181.57l4.06 3.24h-8.12l4.06-3.24z"/>
              </g>
              <g>
                <path fill="#248971" d="M600.33 189.2l4.6 3.44h-9.2l4.6-3.45z"/>
                <path fill="#248971" d="M600.33 187.73l4.1 2.93h-8.2l4.1-2.93z"/>
                <path fill="#248971" d="M600.33 185.8l3.67 2.93h-7.34l3.67-2.92z"/>
              </g>
              <g>
                <path fill="#309b81" d="M609.58 194.51h1.7v.88h-1.7zM610.43 191.07l5.05 3.44h-10.1l5.05-3.44z"/>
                <path fill="#309b81" d="M610.43 188.77l4.6 3.45h-9.19l4.6-3.45z"/>
                <path fill="#309b81" d="M610.43 187.31l4.1 2.92h-8.2l4.1-2.92z"/>
                <path fill="#309b81" d="M610.43 185.38l3.68 2.93h-7.35l3.67-2.93z"/>
              </g>
            </g>
          </g>
        </g>
      </g>
		</symbol>
  </defs>
</svg>